<?xml version="1.0" encoding="utf-8" ?><svg xmlns="http://www.w3.org/2000/svg" xmlns:xlink="http://www.w3.org/1999/xlink" width="1817" height="873" viewBox="0 0 1817 873"><path fill="#C2A685" transform="matrix(2.71194 0 0 2.71118 0 6.10352e-05)" d="M65.3467 28.5281C69.0042 26.9264 76.9202 27.6811 81.1702 27.7088L110.413 27.6991L263.456 27.5438L297.354 27.5659C300.429 27.5625 314.791 26.9303 316.632 28.2389L316.771 28.3352C317.628 28.9445 318.189 29.8877 318.315 30.9325C318.944 36.0626 305.33 34.3972 301.788 34.4203L277.081 34.5029C270.695 34.4634 263.198 34.2086 256.948 34.7536C256.999 43.1213 252.615 49.4476 244.645 51.8879C244.769 63.2146 240.354 68.0846 229.629 70.6666C229.674 73.5775 229.05 77.1481 229.062 80.1157C229.083 85.6916 228.978 91.2856 228.96 96.8513L228.916 181.606L228.845 222.995C228.857 227.674 229.195 240.964 228.718 244.957C240.79 245.711 244.355 252.185 243.982 263.384C253.852 267.851 258.277 276.038 256.245 286.789C255.261 287.066 254.258 287.267 253.243 287.391C248.932 287.893 237.455 287.403 232.743 287.352L196.37 287.252L124.868 287.533C118.168 287.522 111.456 287.477 104.778 287.632C102.035 287.695 99.9365 286.515 99.8418 283.675C99.5097 281.833 101.575 280.774 103.296 280.796C111.326 280.902 119.82 280.768 127.82 280.867C127.852 271.439 131.531 268.012 139.248 263.689C139.227 263.43 139.211 263.171 139.199 262.912C138.731 252.655 144.368 245.542 154.994 245.243C155.428 237.416 155.25 229.698 155.249 221.856L155.279 190.442L155.313 117.44L155.117 85.7211C155.124 81.1275 154.957 74.7198 155.338 70.2471C145.267 69.5371 138.691 61.9419 139.192 51.7975C132.972 49.0093 128.677 43.5192 127.797 36.7459C127.661 35.7632 127.755 35.0946 127.194 34.468C122.1 34.1043 116.226 34.494 111.023 34.4151C98.2921 34.2219 84.5383 34.8562 71.8892 34.2209C72.5623 35.9515 73.455 38.4706 74.3604 39.9993C74.8329 42.4683 82.0704 58.1079 83.6097 61.783L114.953 134.84L123.242 153.915C124.87 157.624 127.132 162.023 128.119 165.857C127.361 168.416 125.765 171.493 124.576 173.85C116.747 189.478 102.261 200.65 85.6515 205.675C72.1359 209.765 55.6694 208.94 42.5949 203.608C26.6029 197.087 12.2082 182.665 7.07263 166.024C8.38223 160.555 12.5461 152.222 14.8332 146.667C22.01 129.255 29.3677 111.918 36.9049 94.6587L55.73 50.6432C58.5773 43.9742 61.9604 34.7534 65.3467 28.5281ZM68.4096 163.401C85.5586 163.469 102.903 163.138 119.99 163.324L73.9579 56.0672C73.1677 54.2464 68.1604 41.2299 67.3943 40.7623L35.5784 115.42L24.3724 141.893C21.3266 148.967 17.9371 156.086 15.4409 163.358C21.8612 163.093 29.2209 163.328 35.708 163.35L68.4096 163.401ZM105.267 187.41C110.402 182.548 116.435 176.516 119.006 169.759C96.6507 170.277 72.9224 169.77 50.4831 169.679C45.0968 169.625 39.71 169.64 34.3241 169.725C28.3057 169.84 21.6664 170.156 15.6962 169.458C28.6847 197.549 62.7318 209.01 90.3179 196.781C95.6004 194.439 100.748 190.95 105.267 187.41ZM161.942 245.082C164.852 245.133 167.972 245.129 170.855 245.37L171.779 244.967C172.567 242.539 171.996 223.047 172.023 219.309L172.082 115.61C172.074 101.291 171.251 83.9075 171.979 70.0062C168.99 69.9912 164.931 70.1637 162.058 70.0483C161.684 86.2702 161.943 102.483 161.844 118.683L161.942 245.082ZM212.374 245.102L221.234 245.147L221.99 244.858C222.617 242.529 222.367 229.273 222.363 226.196L222.422 192.584L222.453 115.849C222.45 100.901 222.733 84.9086 222.101 70.0745C218.884 69.9976 215.665 69.9886 212.448 70.0473C212.846 77.1927 212.098 85.5021 212.28 92.8464C212.472 100.617 211.924 108.576 212.503 116.406C212.594 121.556 212.101 126.852 212.106 132.044L212.606 230.538C212.677 235.317 212.239 240.422 212.374 245.102ZM247.503 42.1736C249.568 39.1033 249.834 37.9282 250.653 34.3516L173.164 34.4021L150.325 34.4136C144.741 34.4441 139.056 34.6477 133.482 34.2659C134.503 37.9716 135.292 41.9791 138.989 43.8459C144.256 46.5049 153.24 45.5853 159.198 45.5643L183.513 45.5321L222.508 45.5039C226.682 45.5054 230.864 45.5386 235.038 45.5074C239.514 45.4739 244.3 46.0304 247.503 42.1736ZM250.215 281.048C248.341 273.888 246.398 269.735 238.295 269.597C231.681 269.484 225.068 269.516 218.453 269.514L181.09 269.507L156.463 269.517C152.904 269.512 145.991 269.32 142.731 269.703C136.831 270.709 134.586 275.314 133.877 280.737C161.223 281.582 189.157 280.754 216.573 281.111C225.181 281.223 232.363 280.477 241.272 280.8C243.975 280.887 247.575 281.098 250.215 281.048ZM145.688 52.1823C147.827 62.3723 149.624 63.516 160.229 63.8212C165.38 63.9694 170.555 63.8222 175.706 63.7692C185.166 63.6296 194.626 63.5598 204.086 63.56C209.915 63.5627 215.691 63.7283 221.509 63.7904C224.193 63.8191 228.651 63.9967 231.212 63.6022C234.021 62.6552 234.759 61.6195 236.689 59.4569C237.301 56.8002 237.452 54.8123 237.683 52.0916C209.696 52.0334 179.489 51.4847 151.621 52.2033C149.87 52.2229 147.364 52.314 145.688 52.1823ZM189.055 115.864L189.056 107.418C189.052 100.155 189.036 92.9089 188.985 85.6468C188.952 80.9437 188.489 74.6961 189.027 70.1465C185.683 70.0935 182.339 70.07 178.995 70.076L178.74 186.85C178.787 206.058 178.601 226.113 179.009 245.281C182.513 245.012 185.616 245.449 189.092 245.062C188.686 201.997 188.673 158.929 189.055 115.864ZM145.839 263.127L178.378 263.1C198.226 263.09 218.184 262.779 237.985 263.335C237.21 257.715 236.6 252.262 229.76 251.713C223.1 251.178 213.917 251.143 207.307 251.474C195.398 251.622 183.487 251.644 171.578 251.539C165.64 251.526 159.193 251.217 153.348 251.976C147.756 252.702 146.063 258.335 145.839 263.127ZM204.219 245.364L205.145 245.122C205.274 244.48 205.213 238.581 205.231 237.425C205.354 228.535 205.415 219.643 205.416 210.752L205.378 109.258L205.374 82.9885C205.35 79.3992 204.911 73.1995 205.31 70.0487C202.241 70.0606 198.925 70.0111 195.878 70.1602C195.292 72.8752 195.496 84.5523 195.521 87.7146C195.574 96.1831 195.58 104.652 195.542 113.12L195.457 195.188C195.495 211.692 195.79 228.772 195.617 245.245C198.462 245.291 201.39 245.283 204.219 245.364Z"/><path fill="#FDFDFD" transform="matrix(2.71194 0 0 2.71118 0 6.10352e-05)" d="M352.68 132.425C370.548 131.002 386.18 144.351 387.577 162.226C388.974 180.101 375.605 195.717 357.733 197.088C339.899 198.456 324.326 185.118 322.932 167.28C321.538 149.443 334.85 133.846 352.68 132.425ZM358.611 194.066C360.177 193.812 363.027 193.462 364.416 192.878C385.681 183.922 381.947 150.459 365.736 138.904C361.915 136.148 357.233 134.855 352.54 135.26C349.944 135.573 346.993 135.994 344.648 137.197C320.702 149.494 331.613 194.634 358.611 194.066Z"/><path fill="#FDFDFD" transform="matrix(2.71194 0 0 2.71118 0 6.10352e-05)" d="M609.567 132.551C627.283 130.839 643.058 143.756 644.878 161.467C646.699 179.177 633.882 195.035 616.188 196.965C598.339 198.912 582.316 185.955 580.479 168.09C578.643 150.224 591.695 134.277 609.567 132.551ZM616.519 193.734C647.894 191.261 638.821 132.953 609.975 135.164C609.698 135.187 609.423 135.223 609.149 135.271C577.548 139.029 584.405 194.585 616.519 193.734Z"/><path fill="#FDFDFD" transform="matrix(2.71194 0 0 2.71118 0 6.10352e-05)" d="M441.415 215.777C459.158 213.654 475.256 226.335 477.351 244.085C479.446 261.835 466.744 277.918 448.995 279.987C431.285 282.051 415.25 269.379 413.159 251.667C411.068 233.956 423.712 217.896 441.415 215.777ZM449.551 277.353C455.711 276.226 460.104 274.467 463.832 269.102C468.861 261.864 469.812 252.518 468.428 244.028C466.349 231.278 456.406 216.284 441.653 218.38C424.667 220.729 419.915 235.379 421.908 250.755C422.971 258.954 427.671 267.79 434.342 272.804C439.574 276.612 443.215 277.487 449.551 277.353Z"/><path fill="#FDFDFD" transform="matrix(2.71194 0 0 2.71118 0 6.10352e-05)" d="M270.064 50.1596C286.008 50.3708 303.687 48.0378 314.581 62.4091C323.706 74.446 321.353 97.3385 309.002 106.298C297.593 115.346 285.559 113.335 271.946 113.6C270.746 113.624 268.954 113.485 268.104 112.565C267.699 111.417 267.447 109.844 267.455 108.608C267.566 91.8966 267.649 75.1853 267.706 58.4731C267.713 56.3572 267.765 53.3942 268.092 51.3312C268.967 50.3226 268.686 50.6195 270.064 50.1596ZM276.181 110.027C285.366 111.145 294.489 112.124 301.899 105.343C313.813 93.4536 314.839 71.0563 302.891 58.8569C297.664 53.5198 289.892 52.9092 282.815 52.993C281.674 53.0099 280.533 53.0435 279.393 53.0938C278.318 53.3022 277.331 53.3409 276.671 54.174C275.131 58.5946 275.707 103.93 276.181 110.027Z"/><path fill="#FDFDFD" transform="matrix(2.71194 0 0 2.71118 0 6.10352e-05)" d="M331.434 50.5191C340.552 51.4695 349.406 49.2831 358.741 51.4134C368.578 53.6583 373.545 62.1174 370.954 71.8855C368.736 80.2473 361.651 81.0917 355.172 84.5933C357.373 89.2242 372.12 109.738 371.769 112.443C371.736 112.693 371.416 112.924 371.221 113.061C369.515 114.261 365.981 113.344 364.063 113.019C362.617 111.417 361.909 110.595 360.706 108.804C359.278 106.916 356.832 102.692 355.518 100.556C352.276 95.2867 349.157 90.3455 345.653 85.2459C343.531 84.7599 338.409 83.8465 336.552 84.9465C334.951 87.9296 336.589 106.868 335.337 112.966C333.448 113.194 329.822 113.67 328.132 112.947C326.795 109.616 327.497 53.3416 328.533 51.5946C329.228 50.7769 330.335 50.729 331.434 50.5191ZM336.098 81.8259C342.274 81.988 352.897 83.3002 357.944 79.5088C362.197 75.7138 362.59 73.9003 363.038 68.3465C364.415 51.31 349.367 52.9405 337.633 53.4715C336.782 54.0677 336.262 54.3051 336.133 55.5406C335.236 64.1079 335.79 73.2895 336.098 81.8259Z"/><path fill="#FDFDFD" transform="matrix(2.71194 0 0 2.71118 0 6.10352e-05)" d="M396.649 132.934C398.123 132.745 400.062 132.822 401.574 132.934C412.659 133.752 433.198 129.805 438.268 143.217C439.821 147.319 439.682 151.87 437.881 155.869C434.863 162.623 429.557 164.36 423.257 166.772C425.834 173.881 431.704 181.006 435.774 187.456C436.932 189.293 439.957 193.026 440.436 194.888L440.065 195.469C438.065 196.434 434.386 195.643 432.074 195.323C431.198 194.482 430.385 193.431 429.611 192.482C428.054 190.757 424.631 184.931 423.227 182.647C420.047 177.45 416.805 172.292 413.502 167.173C410.644 166.762 406.951 166.717 404.007 166.602C403.641 170.664 403.734 193.719 402.729 195.18C400.584 196.295 398.089 195.727 395.645 195.483C393.861 183.638 396.039 168.087 395.198 155.861C394.747 149.309 395.361 141.756 395.393 135.142C395.398 134.114 395.999 133.6 396.649 132.934ZM425.964 161.637C432.017 156.105 432.65 145.528 427.261 139.222C424.479 135.967 419.618 135.716 415.602 135.651C412.065 135.614 408.528 135.722 405 135.974C402.876 137.612 403.433 144.124 403.478 146.848C403.575 152.74 403.043 158.742 404.143 164.534C410.923 164.064 420.632 165.647 425.964 161.637Z"/><path fill="#FDFDFD" transform="matrix(2.71194 0 0 2.71118 0 6.10352e-05)" d="M325.411 215.765C335.122 216.06 345.116 215.669 354.809 215.757C361.305 215.838 368.434 216.507 374.908 216.085C386.711 215.316 398.281 215.921 410.072 215.816C411.094 215.807 411.909 216.202 412.522 216.954C410.921 219.686 398.016 217.437 395.068 218.819C392.171 220.178 393.783 230.447 393.438 233.473C392.557 241.199 394.782 273.9 392.708 278.544C390.877 279.974 388.049 279.41 385.64 279.274C384.871 273.372 385.066 267.249 385.078 261.284L385.112 234.797C385.118 229.783 385.302 223.591 384.935 218.741C380.595 218.083 374.657 218.442 370.17 218.268C366.877 218.14 364.255 217.477 361.156 217.467C357.263 218.961 332.301 217.708 331.626 219.306C329.575 224.172 330.363 240.252 331.111 245.896C336.435 245.621 341.773 246.271 347.098 245.946C349.004 245.83 350.851 245.538 352.484 246.763L352.396 247.247C350.111 248.397 334.78 248.415 331.031 248.541C330.194 254.683 330.411 270.235 330.871 276.805C338.423 278.226 353.906 276.657 358.589 278.433L358.484 278.704C356.233 279.202 350.155 279.36 347.665 279.365C339.338 279.383 331.543 279.17 323.211 279.648C322.753 276.688 322.494 273.701 322.436 270.707C322.149 260.929 322.505 250.487 322.508 240.681C322.51 236.969 321.934 218.624 322.916 216.809C323.642 216.034 324.365 215.989 325.411 215.765Z"/><path fill="#FDFDFD" transform="matrix(2.71194 0 0 2.71118 0 6.10352e-05)" d="M306.095 163.946C306.898 155.27 306.041 147.833 306.279 139.205C306.47 137.512 306.174 134.315 307.529 133.134C308.466 132.256 313.515 132.2 313.997 133.623C315.412 137.806 314.67 145.625 314.636 149.758L314.555 172.78C314.533 177.554 314.923 191.733 314.24 195.331C312.534 196.257 308.679 196.462 307.114 195.29C305.744 192.676 306.678 171.619 306.038 165.748C296.073 166.966 286.541 164.999 276.251 165.786C275.536 173.64 275.71 181.07 275.899 188.938C275.939 190.578 275.865 193.215 275.238 194.732C273.423 196.479 269.988 196.103 268.048 194.7C267.415 193.858 267.478 192.161 267.46 191.106C267.327 183.206 267.707 175.292 267.478 167.393C267.307 161.511 267.394 155.67 267.511 149.789C267.613 144.688 267.495 139.563 267.759 134.469C267.793 133.799 268.533 133.043 268.98 132.571C271.076 132.526 274.765 131.946 275.444 134.613C277.261 141.751 274.231 156.604 276.551 163.004C276.607 163.062 277.114 163.585 277.114 163.585C286.714 163.632 296.509 163.488 306.095 163.946Z"/><path fill="#FDFDFD" transform="matrix(2.71194 0 0 2.71118 0 6.10352e-05)" d="M472.803 131.228C474.679 134.265 477.163 140.735 478.616 144.203L489.021 169.384C491.86 176.283 497.523 187.511 499.11 194.342C498.491 196.726 493.895 195.651 491.893 195.439C490.131 192.58 489.343 190.459 487.995 187.77C486.354 184.499 484.161 174.451 480.488 174.183C473.337 173.661 465.117 173.312 457.995 174.021C453.945 176.151 450.695 193.422 446.528 195.023L445.786 194.832C445.445 193.79 445.47 193.98 445.914 192.773C448.038 187.01 450.639 181.413 453.046 175.769L463.84 150.372C464.948 147.831 469.932 134.335 470.99 132.998L472.803 131.228ZM458.897 170.829C462.44 171.199 466.292 171.09 469.867 170.961C473.67 171.108 476.819 171.243 480.638 170.999C479.716 167.678 471.81 145.927 469.639 144.792C468.618 146.985 467.669 149.134 466.737 151.366C463.936 158.071 460.772 163.727 458.897 170.829Z"/><path fill="#FDFDFD" transform="matrix(2.71194 0 0 2.71118 0 6.10352e-05)" d="M267.837 216.019C270.398 215.768 272.61 215.594 274.389 217.812C286.399 232.788 296.695 249.866 309.207 264.378C309.329 258.669 309.016 218.757 309.991 217.067C310.263 216.598 310.499 216.623 310.991 216.474L311.671 216.878C313.996 231.485 310.368 250.876 311.978 265.941C312.242 268.404 312.449 277.092 310.913 278.563C309.576 278.488 309.763 278.347 308.478 277.542C307.585 276.819 306.252 275.498 305.585 274.544C295.278 259.809 284.198 245.657 274.003 230.846C272.857 229.181 271.389 227.509 270.065 225.999C268.897 242.772 270.068 259.429 269.217 276.201C269.163 277.269 268.979 277.757 268.223 278.459C266.256 276.849 267.106 245.742 267.206 240.778C267.29 236.606 266.622 218.934 267.837 216.019Z"/><path fill="#FDFDFD" transform="matrix(2.71194 0 0 2.71118 0 6.10352e-05)" d="M526.615 132.592C534.91 132.205 543.205 133.022 550.435 137.478C553.499 139.2 556.249 141.759 553.726 145.3C550.643 149.625 544.534 140.946 541.067 138.67C531.691 132.513 518.623 135.233 512.641 144.674C501.413 162.396 509.613 190.219 532.123 192.942C534.723 193.255 536.809 192.739 539.369 192.209C541.096 191.659 543.914 190.571 545.511 189.641C547.689 188.371 553.855 179.939 556.322 181.325C556.537 182.141 556.514 182.456 556.16 183.229L556.085 183.39C553.623 188.663 544.76 193.982 539.244 195.67C531.375 198.032 522.893 197.208 515.625 193.376C499.739 184.905 495.778 163.927 503.836 148.515C508.963 138.708 516.567 135.555 526.615 132.592Z"/><path fill="#FDFDFD" transform="matrix(2.71194 0 0 2.71118 0 6.10352e-05)" d="M566.031 132.609C567.704 132.528 570.415 132.499 571.618 133.791C571.842 134.92 572.194 137.726 572.148 139.262C571.6 157.609 572.309 176.128 571.878 194.409C571.86 195.159 570.676 195.597 570.05 195.918C568.365 195.846 565.844 196.008 564.727 194.799C562.927 188.151 564.504 172.217 564.245 164.599C563.91 154.737 563.801 144.059 564.426 134.234C564.481 133.37 565.388 132.972 566.031 132.609Z"/><path fill="#FDFDFD" transform="matrix(2.71194 0 0 2.71118 0 6.10352e-05)" d="M476.623 116.311C477.957 116.258 480.558 116.148 481.712 116.653L481.861 117.281C480.953 120.023 474.489 126.862 472.256 129.316L470.873 129.694C466.062 127.792 472.023 120.509 473.864 118.274C474.574 117.414 475.653 116.844 476.623 116.311Z"/><path fill="#FAF9FD" fill-opacity="0.92156863" transform="matrix(2.71194 0 0 2.71118 0 6.10352e-05)" d="M470.873 129.694L472.256 129.316L472.803 131.228L470.99 132.998C471.403 131.372 471.629 131.061 470.873 129.694Z"/></svg>